<mxfile host="Electron" modified="2024-06-01T10:38:44.159Z" agent="Mozilla/5.0 (Macintosh; Intel Mac OS X 10_15_7) AppleWebKit/537.36 (KHTML, like Gecko) draw.io/24.4.13 Chrome/124.0.6367.207 Electron/30.0.6 Safari/537.36" etag="aD9FoX9n-jCzB1QO6pk4" version="24.4.13" type="device">
  <diagram name="페이지-1" id="ucxn1mvH_2oVf78QJvIP">
    <mxGraphModel dx="1314" dy="953" grid="1" gridSize="10" guides="1" tooltips="1" connect="1" arrows="1" fold="1" page="1" pageScale="1" pageWidth="827" pageHeight="1169" math="0" shadow="0">
      <root>
        <mxCell id="0" />
        <mxCell id="1" parent="0" />
        <mxCell id="3iUdf77s6wv7ScMiY093-1" value="지하철 노선도&lt;div&gt;서비스&lt;/div&gt;" style="ellipse;whiteSpace=wrap;html=1;aspect=fixed;fontSize=20;" parent="1" vertex="1">
          <mxGeometry x="414" y="331.15" width="135.71" height="135.71" as="geometry" />
        </mxCell>
        <mxCell id="3iUdf77s6wv7ScMiY093-2" value="지하철 운영사" style="rounded=0;whiteSpace=wrap;html=1;fontSize=20;" parent="1" vertex="1">
          <mxGeometry width="200" height="80" as="geometry" />
        </mxCell>
        <mxCell id="3iUdf77s6wv7ScMiY093-3" value="사용자" style="rounded=0;whiteSpace=wrap;html=1;fontSize=20;" parent="1" vertex="1">
          <mxGeometry x="760" y="720" width="200" height="80" as="geometry" />
        </mxCell>
        <mxCell id="3iUdf77s6wv7ScMiY093-4" value="시스템 운영자" style="rounded=0;whiteSpace=wrap;html=1;fontSize=20;" parent="1" vertex="1">
          <mxGeometry x="760" width="200" height="80" as="geometry" />
        </mxCell>
        <mxCell id="3iUdf77s6wv7ScMiY093-5" value="" style="endArrow=classic;startArrow=classic;html=1;rounded=0;entryX=0;entryY=1;entryDx=0;entryDy=0;exitX=1;exitY=0;exitDx=0;exitDy=0;fontSize=20;" parent="1" source="3iUdf77s6wv7ScMiY093-1" target="3iUdf77s6wv7ScMiY093-4" edge="1">
          <mxGeometry width="50" height="50" relative="1" as="geometry">
            <mxPoint x="624.2857142857142" y="740.9999999999999" as="sourcePoint" />
            <mxPoint x="706.4285714285714" y="646" as="targetPoint" />
          </mxGeometry>
        </mxCell>
        <mxCell id="3iUdf77s6wv7ScMiY093-6" value="시스템 구축 및 유지보수" style="edgeLabel;html=1;align=center;verticalAlign=middle;resizable=0;points=[];fontSize=20;" parent="3iUdf77s6wv7ScMiY093-5" vertex="1" connectable="0">
          <mxGeometry relative="1" as="geometry">
            <mxPoint y="1" as="offset" />
          </mxGeometry>
        </mxCell>
        <mxCell id="3iUdf77s6wv7ScMiY093-7" value="지하철 노선도 및 열차 시간표 전달" style="endArrow=classic;startArrow=classic;html=1;rounded=0;entryX=1;entryY=1;entryDx=0;entryDy=0;fontSize=20;" parent="1" target="3iUdf77s6wv7ScMiY093-2" edge="1">
          <mxGeometry width="50" height="50" relative="1" as="geometry">
            <mxPoint x="440" y="351" as="sourcePoint" />
            <mxPoint x="706.4285714285714" y="646" as="targetPoint" />
          </mxGeometry>
        </mxCell>
        <mxCell id="3iUdf77s6wv7ScMiY093-8" value="개발사" style="rounded=0;whiteSpace=wrap;html=1;fontSize=20;" parent="1" vertex="1">
          <mxGeometry x="760" y="360" width="200" height="78" as="geometry" />
        </mxCell>
        <mxCell id="3iUdf77s6wv7ScMiY093-9" value="" style="endArrow=classic;startArrow=classic;html=1;rounded=0;entryX=1;entryY=0.5;entryDx=0;entryDy=0;exitX=0;exitY=0.5;exitDx=0;exitDy=0;fontSize=20;" parent="1" source="3iUdf77s6wv7ScMiY093-8" target="3iUdf77s6wv7ScMiY093-1" edge="1">
          <mxGeometry width="50" height="50" relative="1" as="geometry">
            <mxPoint x="522.4285714285714" y="345.79999999999995" as="sourcePoint" />
            <mxPoint x="739.2857142857141" y="95" as="targetPoint" />
          </mxGeometry>
        </mxCell>
        <mxCell id="3iUdf77s6wv7ScMiY093-10" value="시스템 설계 및 개발" style="edgeLabel;html=1;align=center;verticalAlign=middle;resizable=0;points=[];fontSize=20;" parent="3iUdf77s6wv7ScMiY093-9" vertex="1" connectable="0">
          <mxGeometry relative="1" as="geometry">
            <mxPoint y="1" as="offset" />
          </mxGeometry>
        </mxCell>
        <mxCell id="3iUdf77s6wv7ScMiY093-11" value="" style="endArrow=classic;startArrow=classic;html=1;rounded=0;exitX=0;exitY=0;exitDx=0;exitDy=0;entryX=1;entryY=1;entryDx=0;entryDy=0;fontSize=20;" parent="1" source="3iUdf77s6wv7ScMiY093-3" target="3iUdf77s6wv7ScMiY093-1" edge="1">
          <mxGeometry width="50" height="50" relative="1" as="geometry">
            <mxPoint x="690" y="627" as="sourcePoint" />
            <mxPoint x="492.8571428571429" y="570" as="targetPoint" />
          </mxGeometry>
        </mxCell>
        <mxCell id="3iUdf77s6wv7ScMiY093-12" value="서비스 이용자" style="edgeLabel;html=1;align=center;verticalAlign=middle;resizable=0;points=[];fontSize=20;" parent="3iUdf77s6wv7ScMiY093-11" vertex="1" connectable="0">
          <mxGeometry relative="1" as="geometry">
            <mxPoint y="1" as="offset" />
          </mxGeometry>
        </mxCell>
        <mxCell id="3iUdf77s6wv7ScMiY093-13" value="지하철 경로 탐색 시스템" style="rounded=0;whiteSpace=wrap;html=1;fontSize=20;" parent="1" vertex="1">
          <mxGeometry y="359.71" width="200" height="78.29" as="geometry" />
        </mxCell>
        <mxCell id="3iUdf77s6wv7ScMiY093-14" value="지하철 요금 책정 시스템" style="rounded=0;whiteSpace=wrap;html=1;fontSize=20;" parent="1" vertex="1">
          <mxGeometry y="720" width="200" height="80" as="geometry" />
        </mxCell>
        <mxCell id="3iUdf77s6wv7ScMiY093-15" value="요청된 경로 탐색" style="endArrow=classic;startArrow=classic;html=1;rounded=0;entryX=1;entryY=0.5;entryDx=0;entryDy=0;exitX=0;exitY=0.5;exitDx=0;exitDy=0;fontSize=20;" parent="1" source="3iUdf77s6wv7ScMiY093-1" target="3iUdf77s6wv7ScMiY093-13" edge="1">
          <mxGeometry width="50" height="50" relative="1" as="geometry">
            <mxPoint x="430.4285714285715" y="345.79999999999995" as="sourcePoint" />
            <mxPoint x="213.57142857142853" y="95" as="targetPoint" />
          </mxGeometry>
        </mxCell>
        <mxCell id="3iUdf77s6wv7ScMiY093-16" value="탐색된 경로의 요금 책정" style="endArrow=classic;startArrow=classic;html=1;rounded=0;entryX=0;entryY=1;entryDx=0;entryDy=0;exitX=1;exitY=0;exitDx=0;exitDy=0;fontSize=20;" parent="1" source="3iUdf77s6wv7ScMiY093-14" target="3iUdf77s6wv7ScMiY093-1" edge="1">
          <mxGeometry width="50" height="50" relative="1" as="geometry">
            <mxPoint x="410.7142857142856" y="399" as="sourcePoint" />
            <mxPoint x="213.57142857142853" y="399" as="targetPoint" />
          </mxGeometry>
        </mxCell>
      </root>
    </mxGraphModel>
  </diagram>
</mxfile>
